<svg width="255" height="255" viewBox="0 0 255 255" fill="none" xmlns="http://www.w3.org/2000/svg">
<path fill-rule="evenodd" clip-rule="evenodd" d="M141.359 247.197L148.27 235.518C153.625 226.465 156.302 221.926 160.612 219.427C164.921 216.916 170.34 216.826 181.177 216.635C197.191 216.367 207.226 215.386 215.641 211.892C223.375 208.689 230.403 203.993 236.323 198.073C242.243 192.153 246.939 185.125 250.142 177.391C255 165.686 255 150.833 255 121.125V108.375C255 66.6442 255 45.7725 245.603 30.447C240.35 21.8688 233.141 14.6555 224.566 9.39675C209.228 0 188.356 0 146.625 0H108.375C66.6442 0 45.7725 0 30.447 9.39675C21.8688 14.6503 14.6555 21.8592 9.39675 30.4343C0 45.7725 0 66.657 0 108.375V121.125C0 150.833 1.51992e-06 165.686 4.845 177.391C8.05021 185.126 12.748 192.155 18.67 198.075C24.5921 203.995 31.6223 208.69 39.3592 211.892C47.7743 215.386 57.8085 216.355 73.8225 216.635C84.66 216.826 90.0788 216.916 94.3882 219.427C98.685 221.926 101.375 226.453 106.73 235.518L113.641 247.197C119.799 257.601 135.188 257.601 141.359 247.197ZM178.5 127.5C181.882 127.5 185.125 126.157 187.516 123.766C189.907 121.375 191.25 118.132 191.25 114.75C191.25 111.368 189.907 108.125 187.516 105.734C185.125 103.343 181.882 102 178.5 102C175.118 102 171.875 103.343 169.484 105.734C167.093 108.125 165.75 111.368 165.75 114.75C165.75 118.132 167.093 121.375 169.484 123.766C171.875 126.157 175.118 127.5 178.5 127.5ZM140.25 114.75C140.25 118.132 138.907 121.375 136.516 123.766C134.125 126.157 130.882 127.5 127.5 127.5C124.118 127.5 120.875 126.157 118.484 123.766C116.093 121.375 114.75 118.132 114.75 114.75C114.75 111.368 116.093 108.125 118.484 105.734C120.875 103.343 124.118 102 127.5 102C130.882 102 134.125 103.343 136.516 105.734C138.907 108.125 140.25 111.368 140.25 114.75ZM76.5 127.5C79.8815 127.5 83.1245 126.157 85.5156 123.766C87.9067 121.375 89.25 118.132 89.25 114.75C89.25 111.368 87.9067 108.125 85.5156 105.734C83.1245 103.343 79.8815 102 76.5 102C73.1185 102 69.8755 103.343 67.4844 105.734C65.0933 108.125 63.75 111.368 63.75 114.75C63.75 118.132 65.0933 121.375 67.4844 123.766C69.8755 126.157 73.1185 127.5 76.5 127.5Z" fill="#314F4A"/>
</svg>
