<svg width="705" height="802" viewBox="0 0 705 802" fill="none" xmlns="http://www.w3.org/2000/svg">
<path fill-rule="evenodd" clip-rule="evenodd" d="M700.523 425.004L699.732 423.734L699.644 423.587L699.509 423.377L699.198 422.885L699.144 422.797L698.677 422.061L698.593 421.922L549.605 186.24L549.719 186.249L550.181 186.278L550.597 186.308L680.12 194.636L680.436 195.221L699.623 422.801L700.35 422.822L700.535 425.012L700.523 425.004ZM551.115 187.149L699.446 421.745L699.358 420.657L680.461 195.725L680.44 195.464L680.146 195.448L551.127 187.153H551.119L551.115 187.149ZM682.382 208.993L681.369 196.97L681.377 196.982L682.386 208.989L682.382 208.993ZM681.192 194.825L681.096 194.775L681.049 194.691L681.18 194.699L681.192 194.825Z" fill="#EBFFFB"/>
<path d="M166.346 264.758L165.564 264.552L224.678 40.2129L225.464 40.4189L166.346 264.758Z" fill="#EBFFFB" style="mix-blend-mode:soft-light"/>
<path d="M166.199 264.972L165.711 264.329L483.316 20.323L483.803 20.962L166.199 264.972Z" fill="#EBFFFB" style="mix-blend-mode:soft-light"/>
<path d="M290.496 350.809L165.724 264.989L166.182 264.32L290.955 350.14L290.496 350.809Z" fill="#EBFFFB" style="mix-blend-mode:soft-light"/>
<path d="M290.955 350.804L290.496 350.14L452.807 237.901L453.265 238.566L290.955 350.804Z" fill="#EBFFFB" style="mix-blend-mode:soft-light"/>
<path d="M453.437 238.288L452.639 238.175L483.16 20.5836L483.959 20.7013L453.437 238.288Z" fill="#EBFFFB" style="mix-blend-mode:soft-light"/>
<path d="M452.769 238.54L224.804 40.6207L225.333 40.0069L453.303 237.927L452.769 238.54Z" fill="#EBFFFB" style="mix-blend-mode:soft-light"/>
<path d="M538.078 454.929L452.66 238.381L453.412 238.082L538.83 454.63L538.078 454.929Z" fill="#EBFFFB" style="mix-blend-mode:soft-light"/>
<path d="M538.296 455.156L290.568 350.842L290.883 350.098L538.612 454.408L538.296 455.156Z" fill="#EBFFFB" style="mix-blend-mode:soft-light"/>
<path d="M267.265 518.395L266.462 518.277L290.328 350.413L291.127 350.527L267.265 518.395Z" fill="#EBFFFB" style="mix-blend-mode:soft-light"/>
<path d="M266.954 518.731L266.773 517.945L538.359 454.387L538.544 455.173L266.954 518.731Z" fill="#EBFFFB" style="mix-blend-mode:soft-light"/>
<path d="M3.71219 418.218L3.16145 417.625L165.678 264.358L166.233 264.947L3.71219 418.218Z" fill="#EBFFFB" style="mix-blend-mode:soft-light"/>
<path d="M266.487 518.488L165.577 264.8L166.329 264.505L267.24 518.189L266.487 518.488Z" fill="#EBFFFB" style="mix-blend-mode:soft-light"/>
<path d="M648.338 280.427L452.95 238.629L453.122 237.838L648.51 279.632L648.338 280.427Z" fill="#EBFFFB" style="mix-blend-mode:soft-light"/>
<path d="M538.797 454.996L538.111 454.567L648.081 279.817L648.766 280.246L538.797 454.996Z" fill="#EBFFFB" style="mix-blend-mode:soft-light"/>
<path d="M648.085 280.246L483.219 20.8611L483.904 20.4239L648.766 279.813L648.085 280.246Z" fill="#EBFFFB" style="mix-blend-mode:soft-light"/>
<path d="M648.804 280.174L648.048 279.884L680.835 194.905L681.592 195.195L648.804 280.174Z" fill="#EBFFFB" style="mix-blend-mode:soft-light"/>
<path d="M804.233 425.912L648.148 280.326L648.703 279.733L804.783 425.319L804.233 425.912Z" fill="#EBFFFB" style="mix-blend-mode:soft-light"/>
<path d="M538.494 455.185L538.41 454.378L804.464 425.214L804.548 426.017L538.494 455.185Z" fill="#EBFFFB" style="mix-blend-mode:soft-light"/>
<path d="M545.7 590.19L538.048 454.803L538.855 454.757L546.507 590.148L545.7 590.19Z" fill="#EBFFFB" style="mix-blend-mode:soft-light"/>
<path d="M724.04 625.16L546.023 590.568L546.179 589.773L724.196 624.37L724.04 625.16Z" fill="#EBFFFB" style="mix-blend-mode:soft-light"/>
<path d="M546.318 590.509L545.885 589.828L804.291 425.273L804.724 425.958L546.318 590.509Z" fill="#EBFFFB" style="mix-blend-mode:soft-light"/>
<path d="M574.237 768.741L545.7 590.236L546.503 590.101L575.036 768.606L574.237 768.741Z" fill="#EBFFFB" style="mix-blend-mode:soft-light"/>
<path d="M335.177 789.493L334.626 788.904L545.826 589.874L546.381 590.463L335.177 789.493Z" fill="#EBFFFB" style="mix-blend-mode:soft-light"/>
<path d="M546.002 590.56L266.76 518.731L266.962 517.945L546.204 589.778L546.002 590.56Z" fill="#EBFFFB" style="mix-blend-mode:soft-light"/>
<path d="M232.405 679.154L231.614 678.982L266.466 518.252L267.256 518.42L232.405 679.154Z" fill="#EBFFFB" style="mix-blend-mode:soft-light"/>
<path d="M334.605 789.472L231.715 679.339L232.308 678.793L335.198 788.925L334.605 789.472Z" fill="#EBFFFB" style="mix-blend-mode:soft-light"/>
<path d="M210.338 749.767L209.564 749.528L231.623 678.948L232.396 679.188L210.338 749.767Z" fill="#EBFFFB" style="mix-blend-mode:soft-light"/>
<path d="M231.917 679.461L108.902 651.625L109.087 650.839L232.102 678.671L231.917 679.461Z" fill="#EBFFFB" style="mix-blend-mode:soft-light"/>
<path d="M232.119 679.453L231.9 678.679L545.99 589.778L546.213 590.56L232.119 679.453Z" fill="#EBFFFB" style="mix-blend-mode:soft-light"/>
<path d="M231.703 679.331L99.384 524.853L99.9978 524.323L232.316 678.801L231.703 679.331Z" fill="#EBFFFB" style="mix-blend-mode:soft-light"/>
<path d="M99.7077 524.991L99.6783 524.184L266.849 517.933L266.878 518.744L99.7077 524.991Z" fill="#EBFFFB" style="mix-blend-mode:soft-light"/>
<path d="M100.086 524.685L99.2999 524.487L165.564 264.552L166.346 264.753L100.086 524.685Z" fill="#EBFFFB" style="mix-blend-mode:soft-light"/>
<path d="M99.3924 524.861L3.13623 418.193L3.73741 417.651L99.9936 524.315L99.3924 524.861Z" fill="#EBFFFB" style="mix-blend-mode:soft-light"/>
<path d="M61.312 593.238L60.5889 592.872L99.3335 524.407L100.052 524.773L61.312 593.238Z" fill="#EBFFFB" style="mix-blend-mode:soft-light"/>
<path d="M165.737 264.993L66.0542 202.145L66.4914 201.464L166.174 264.312L165.737 264.993Z" fill="#EBFFFB" style="mix-blend-mode:soft-light"/>
<path d="M333.664 135.61L332.953 135.227L401.37 5.51587L402.085 5.89845L333.664 135.61Z" fill="#EBFFFB" style="mix-blend-mode:soft-light"/>
<path d="M453.328 238.511L452.744 237.956L613.906 69.4823L614.495 70.0373L453.328 238.511Z" fill="#EBFFFB" style="mix-blend-mode:soft-light"/>
<path d="M295.264 350.14C295.264 352.515 293.334 354.445 290.955 354.445C288.579 354.445 286.645 352.515 286.645 350.14C286.645 347.761 288.575 345.831 290.955 345.831C293.334 345.831 295.264 347.756 295.264 350.14Z" fill="#EBFFFB" style="mix-blend-mode:soft-light"/>
<path d="M170.037 264.753C170.037 267.133 168.108 269.058 165.728 269.058C163.353 269.058 161.423 267.129 161.423 264.753C161.423 262.374 163.353 260.448 165.728 260.448C168.108 260.448 170.037 262.378 170.037 264.753Z" fill="#EBFFFB" style="mix-blend-mode:soft-light"/>
<path d="M271.069 517.933C271.069 520.308 269.14 522.238 266.76 522.238C264.381 522.238 262.451 520.308 262.451 517.933C262.451 515.553 264.381 513.628 266.76 513.628C269.14 513.628 271.069 515.553 271.069 517.933Z" fill="#EBFFFB" style="mix-blend-mode:soft-light"/>
<path d="M103.689 524.861C103.689 527.241 101.759 529.166 99.384 529.166C97.0087 529.166 95.079 527.241 95.079 524.861C95.079 522.482 97.0087 520.556 99.384 520.556C101.763 520.556 103.689 522.486 103.689 524.861Z" fill="#EBFFFB" style="mix-blend-mode:soft-light"/>
<path d="M236.411 678.793C236.411 681.172 234.481 683.098 232.102 683.098C229.723 683.098 227.793 681.172 227.793 678.793C227.793 676.417 229.723 674.488 232.102 674.488C234.481 674.488 236.411 676.417 236.411 678.793Z" fill="#EBFFFB" style="mix-blend-mode:soft-light"/>
<path d="M550.333 589.773C550.333 592.153 548.403 594.079 546.028 594.079C543.648 594.079 541.723 592.153 541.723 589.773C541.723 587.398 543.648 585.468 546.028 585.468C548.403 585.468 550.333 587.398 550.333 589.773Z" fill="#EBFFFB" style="mix-blend-mode:soft-light"/>
<path d="M542.353 454.387C542.353 456.766 540.424 458.692 538.048 458.692C535.669 458.692 533.743 456.762 533.743 454.387C533.743 452.007 535.673 450.082 538.048 450.082C540.428 450.082 542.353 452.007 542.353 454.387Z" fill="#EBFFFB" style="mix-blend-mode:soft-light"/>
<path d="M457.608 238.288C457.608 240.668 455.678 242.597 453.303 242.597C450.923 242.597 448.998 240.668 448.998 238.288C448.998 235.909 450.928 233.983 453.303 233.983C455.682 233.983 457.608 235.909 457.608 238.288Z" fill="#EBFFFB" style="mix-blend-mode:soft-light"/>
<path d="M652.352 280.174C652.352 282.554 650.427 284.479 648.048 284.479C645.668 284.479 643.743 282.55 643.743 280.174C643.743 277.799 645.668 275.869 648.048 275.869C650.427 275.869 652.352 277.799 652.352 280.174Z" fill="#EBFFFB" style="mix-blend-mode:soft-light"/>
<path d="M339.053 135.61C339.053 137.989 337.124 139.915 334.748 139.915C332.369 139.915 330.443 137.985 330.443 135.61C330.443 133.23 332.373 131.305 334.748 131.305C337.128 131.305 339.053 133.234 339.053 135.61Z" fill="#EBFFFB" style="mix-blend-mode:soft-light"/>
<path d="M809 425.433C809 428.38 806.612 430.763 803.669 430.763C800.726 430.763 798.339 428.375 798.339 425.433C798.339 422.49 800.726 420.102 803.669 420.102C806.612 420.102 809 422.49 809 425.433Z" fill="#EBFFFB" style="mix-blend-mode:soft-light"/>
<path d="M706.072 421.985C706.072 425.601 703.142 428.527 699.531 428.527C695.919 428.527 692.989 425.596 692.989 421.985C692.989 418.374 695.919 415.443 699.531 415.443C703.146 415.443 706.072 418.374 706.072 421.985Z" fill="#EBFFFB" style="mix-blend-mode:soft-light"/>
<path d="M534.458 680.449C534.458 684.06 531.528 686.991 527.916 686.991C524.305 686.991 521.375 684.06 521.375 680.449C521.375 676.833 524.305 673.907 527.916 673.907C531.532 673.907 534.458 676.838 534.458 680.449Z" fill="#EBFFFB" style="mix-blend-mode:soft-light"/>
<path d="M730.662 623.865C730.662 627.477 727.731 630.407 724.12 630.407C720.505 630.407 717.578 627.477 717.578 623.865C717.578 620.25 720.505 617.323 724.12 617.323C727.731 617.323 730.662 620.254 730.662 623.865Z" fill="#EBFFFB" style="mix-blend-mode:soft-light"/>
<path d="M579.408 769.741C579.408 772.373 577.272 774.509 574.64 774.509C572.009 774.509 569.873 772.373 569.873 769.741C569.873 767.11 572.004 764.974 574.64 764.974C577.272 764.974 579.408 767.11 579.408 769.741Z" fill="#EBFFFB" style="mix-blend-mode:soft-light"/>
<path d="M404.12 798.372C404.12 800.377 402.493 802 400.491 802C398.49 802 396.863 800.373 396.863 798.372C396.863 796.366 398.49 794.744 400.491 794.744C402.493 794.744 404.12 796.371 404.12 798.372Z" fill="#EBFFFB" style="mix-blend-mode:soft-light"/>
<path d="M340.491 789.198C340.491 792.81 337.561 795.74 333.95 795.74C330.334 795.74 327.408 792.81 327.408 789.198C327.408 785.587 330.338 782.657 333.95 782.657C337.561 782.657 340.491 785.587 340.491 789.198Z" fill="#EBFFFB" style="mix-blend-mode:soft-light"/>
<path d="M212.805 749.906C212.805 752.197 210.947 754.056 208.656 754.056C206.365 754.056 204.507 752.197 204.507 749.906C204.507 747.615 206.365 745.757 208.656 745.757C210.947 745.757 212.805 747.615 212.805 749.906Z" fill="#EBFFFB" style="mix-blend-mode:soft-light"/>
<path d="M281.382 643.154C281.382 646.765 278.452 649.696 274.84 649.696C271.229 649.696 268.299 646.765 268.299 643.154C268.299 639.538 271.229 636.612 274.84 636.612C278.456 636.612 281.382 639.543 281.382 643.154Z" fill="#EBFFFB" style="mix-blend-mode:soft-light"/>
<path d="M114.472 652.104C114.472 655.716 111.542 658.646 107.931 658.646C104.32 658.646 101.389 655.716 101.389 652.104C101.389 648.489 104.315 645.563 107.931 645.563C111.546 645.563 114.472 648.493 114.472 652.104Z" fill="#EBFFFB" style="mix-blend-mode:soft-light"/>
<path d="M66.0962 594.125C66.0962 596.311 64.3221 598.081 62.136 598.081C59.9499 598.081 58.18 596.307 58.18 594.125C58.18 591.939 59.9541 590.164 62.136 590.164C64.3221 590.164 66.0962 591.939 66.0962 594.125Z" fill="#EBFFFB" style="mix-blend-mode:soft-light"/>
<path d="M414.861 418.193C414.861 421.804 411.931 424.735 408.319 424.735C404.708 424.735 401.778 421.804 401.778 418.193C401.778 414.577 404.708 411.651 408.319 411.651C411.931 411.651 414.861 414.582 414.861 418.193Z" fill="#EBFFFB" style="mix-blend-mode:soft-light"/>
<path d="M136.258 418.988C136.258 422.599 133.328 425.529 129.716 425.529C126.105 425.529 123.175 422.599 123.175 418.988C123.175 415.376 126.101 412.446 129.716 412.446C133.332 412.446 136.258 415.376 136.258 418.988Z" fill="#EBFFFB" style="mix-blend-mode:soft-light"/>
<path d="M7.83637 417.621C7.83637 419.782 6.08328 421.539 3.91818 421.539C1.7573 421.539 0 419.786 0 417.621C0 415.46 1.75309 413.703 3.91818 413.703C6.07907 413.703 7.83637 415.456 7.83637 417.621Z" fill="#EBFFFB" style="mix-blend-mode:soft-light"/>
<path d="M81.7438 215.396C81.7438 219.008 78.8135 221.938 75.2022 221.938C71.5909 221.938 68.6607 219.008 68.6607 215.396C68.6607 211.785 71.5867 208.855 75.2022 208.855C78.8135 208.855 81.7438 211.785 81.7438 215.396Z" fill="#EBFFFB" style="mix-blend-mode:soft-light"/>
<path d="M290.055 157.471C290.055 161.087 287.125 164.013 283.513 164.013C279.898 164.013 276.972 161.083 276.972 157.471C276.972 153.86 279.898 150.93 283.513 150.93C287.125 150.93 290.055 153.86 290.055 157.471Z" fill="#EBFFFB" style="mix-blend-mode:soft-light"/>
<path d="M232.009 40.4693C232.009 44.0849 229.079 47.011 225.468 47.011C221.852 47.011 218.926 44.0807 218.926 40.4693C218.926 36.858 221.857 33.9276 225.468 33.9276C229.079 33.9276 232.009 36.858 232.009 40.4693Z" fill="#EBFFFB" style="mix-blend-mode:soft-light"/>
<path d="M407.399 4.79275C407.399 7.43718 405.255 9.5813 402.606 9.5813C399.962 9.5813 397.818 7.43718 397.818 4.79275C397.818 2.14833 399.962 0 402.606 0C405.25 0 407.399 2.14413 407.399 4.79275Z" fill="#EBFFFB" style="mix-blend-mode:soft-light"/>
<path d="M490.105 22.2569C490.105 25.8683 487.175 28.7986 483.564 28.7986C479.952 28.7986 477.022 25.8683 477.022 22.2569C477.022 18.6413 479.952 15.7152 483.564 15.7152C487.175 15.7152 490.105 18.6455 490.105 22.2569Z" fill="#EBFFFB" style="mix-blend-mode:soft-light"/>
<path d="M556.584 185.959C556.584 189.57 553.654 192.501 550.042 192.501C546.431 192.501 543.501 189.57 543.501 185.959C543.501 182.343 546.431 179.417 550.042 179.417C553.658 179.417 556.584 182.347 556.584 185.959Z" fill="#EBFFFB" style="mix-blend-mode:soft-light"/>
<path d="M618.493 68.2631C618.493 71.349 615.992 73.8546 612.902 73.8546C609.816 73.8546 607.31 71.349 607.31 68.2631C607.31 65.1772 609.816 62.6716 612.902 62.6716C615.987 62.6716 618.493 65.1772 618.493 68.2631Z" fill="#EBFFFB" style="mix-blend-mode:soft-light"/>
<path d="M686.796 195.561C686.796 199.177 683.866 202.103 680.255 202.103C676.644 202.103 673.713 199.173 673.713 195.561C673.713 191.95 676.644 189.019 680.255 189.019C683.87 189.019 686.796 191.95 686.796 195.561Z" fill="#EBFFFB" style="mix-blend-mode:soft-light"/>
<path d="M729.018 179.413C729.018 181.961 726.954 184.025 724.406 184.025C721.858 184.025 719.794 181.961 719.794 179.413C719.794 176.865 721.858 174.801 724.406 174.801C726.954 174.801 729.018 176.865 729.018 179.413Z" fill="#EBFFFB" style="mix-blend-mode:soft-light"/>
<path d="M765.778 234.984C765.778 238.595 762.848 241.525 759.237 241.525C755.621 241.525 752.695 238.595 752.695 234.984C752.695 231.368 755.625 228.442 759.237 228.442C762.848 228.442 765.778 231.372 765.778 234.984Z" fill="#EBFFFB" style="mix-blend-mode:soft-light"/>
<path d="M70.7585 200.699C70.7585 203.179 68.749 205.189 66.2686 205.189C63.7924 205.189 61.7829 203.179 61.7829 200.699C61.7829 198.222 63.7924 196.213 66.2686 196.213C68.749 196.213 70.7585 198.222 70.7585 200.699Z" fill="#EBFFFB" style="mix-blend-mode:soft-light"/>
<path d="M47.7834 247.083C47.7834 249.269 46.0092 251.044 43.8231 251.044C41.637 251.044 39.8629 249.269 39.8629 247.083C39.8629 244.897 41.637 243.123 43.8231 243.123C46.0134 243.123 47.7834 244.897 47.7834 247.083Z" fill="#EBFFFB" style="mix-blend-mode:soft-light"/>
</svg>
