<svg width="841" height="747" viewBox="0 0 841 747" fill="none" xmlns="http://www.w3.org/2000/svg">
<g filter="url(#filter0_d_3097_5436)">
<path d="M40 373.419C556.925 373.419 556.925 705.838 1073.85 705.838M40 373.419C556.925 373.419 556.925 456.523 1073.85 456.523M40 373.419C556.925 373.419 556.925 41 1073.85 41M40 373.419C556.925 373.419 556.925 124.105 1073.85 124.105M40 373.419H1073.85M40 373.419C556.925 373.419 556.925 622.733 1073.85 622.733M40 373.419C556.925 373.419 556.925 539.628 1073.85 539.628M40 373.419C556.925 373.419 556.925 290.314 1073.85 290.314M40 373.419C556.925 373.419 556.925 207.209 1073.85 207.209" stroke="url(#paint0_linear_3097_5436)" stroke-opacity="0.7" stroke-linecap="round" stroke-linejoin="bevel" shape-rendering="crispEdges"/>
</g>
<defs>
<filter id="filter0_d_3097_5436" x="0" y="0.5" width="1114.35" height="745.837" filterUnits="userSpaceOnUse" color-interpolation-filters="sRGB">
<feFlood flood-opacity="0" result="BackgroundImageFix"/>
<feColorMatrix in="SourceAlpha" type="matrix" values="0 0 0 0 0 0 0 0 0 0 0 0 0 0 0 0 0 0 127 0" result="hardAlpha"/>
<feOffset/>
<feGaussianBlur stdDeviation="20"/>
<feComposite in2="hardAlpha" operator="out"/>
<feColorMatrix type="matrix" values="0 0 0 0 0.133333 0 0 0 0 0.670588 0 0 0 0 0.596078 0 0 0 1 0"/>
<feBlend mode="normal" in2="BackgroundImageFix" result="effect1_dropShadow_3097_5436"/>
<feBlend mode="normal" in="SourceGraphic" in2="effect1_dropShadow_3097_5436" result="shape"/>
</filter>
<linearGradient id="paint0_linear_3097_5436" x1="40" y1="373.419" x2="1073.85" y2="373.419" gradientUnits="userSpaceOnUse">
<stop stop-color="#A8D7D1"/>
<stop offset="1" stop-color="#22AB98"/>
</linearGradient>
</defs>
</svg>
