<svg width="294" height="335" viewBox="0 0 294 335" fill="none" xmlns="http://www.w3.org/2000/svg">
<path d="M203.482 0.227029L198.646 19.6702C186.824 18.7769 174.951 20.5292 163.891 24.7997L152.956 7.83639L128.885 23.4354L139.491 39.8323C130.885 47.4908 124.007 56.8922 119.313 67.4125L99.8699 62.5767L92.9911 90.2341L112.434 95.0699C111.599 107.05 113.534 118.633 117.667 129.411L99.4245 139.998L114.385 164.864L132.288 153.693C139.875 162.393 149.201 169.529 160.177 174.403L155.344 193.832L183.002 200.711L187.837 181.268C199.329 182.053 210.856 180.385 221.653 176.375L231.158 193.423L256.218 179.45L246.347 161.87C255.151 154.222 262.242 144.605 267.167 133.539L286.596 138.372L293.475 110.714L274.032 105.879C274.831 94.1864 273.044 82.4617 268.799 71.5379L284.997 61.7927L270.376 37.5103L254.192 47.2589C246.529 38.3915 237.008 31.3207 226.304 26.549L231.139 7.10582L203.482 0.227029ZM205.916 49.4809C212.636 51.1054 218.966 54.0481 224.539 58.1383C230.112 62.2285 234.818 67.3847 238.382 73.3079C241.947 79.2311 244.3 85.8032 245.305 92.6429C246.31 99.4826 245.946 106.454 244.235 113.152C237.167 141.57 208.968 158.536 180.55 151.468C152.132 144.4 135.167 116.201 142.235 87.7829C149.303 59.3649 177.501 42.3991 205.919 49.4671L205.916 49.4809ZM6.24803 86.5305L-21.804 90.5666L-18.1003 118.066C-33.284 122.69 -47.1317 130.9 -58.4735 142.004L-80.6122 125.925L-97.3295 148.859L-75.1839 164.91C-78.9865 171.908 -81.912 179.348 -83.8941 187.061C-85.8546 194.943 -86.5915 202.925 -86.5751 210.711L-113.667 214.546L-109.634 242.612L-82.5424 238.777C-77.8376 254.052 -69.48 267.95 -58.1933 279.267L-74.2721 301.406L-51.3377 318.123L-35.2589 295.984C-28.2614 299.787 -20.8217 302.713 -13.1083 304.695C-5.22598 306.655 2.78279 307.399 10.5418 307.376L14.3763 334.467L42.4422 330.434L38.6076 303.343C53.7399 298.545 67.4853 290.154 78.6692 278.887L101.23 295.042L117.94 272.135L95.3864 255.953C99.007 249.071 102.14 241.671 104.097 233.802C106.057 225.92 106.773 217.904 106.753 210.132L134.294 206.438L130.269 178.345L102.762 182.076C98.0688 167.021 89.8233 153.317 78.7214 142.118L94.9033 119.564L71.9689 102.847L55.8284 125.411C48.8131 121.636 41.3708 118.715 33.6606 116.711C25.7782 114.75 17.7937 114.027 10.0105 114.03L6.27913 86.5235L6.24803 86.5305ZM26.7507 144.375C63.5766 153.534 85.5604 190.132 76.4048 226.944C67.2733 263.777 30.579 286.207 -6.24682 277.048C-14.9912 274.884 -23.223 271.017 -30.4706 265.668C-37.7182 260.318 -43.8393 253.592 -48.4833 245.873C-53.1272 238.154 -56.2028 229.595 -57.5338 220.686C-58.8649 211.777 -58.4253 202.693 -56.2402 193.954C-47.0811 157.128 -10.0613 135.22 26.7507 144.375Z" fill="#314F4A"/>
</svg>
